<svg width="30" height="30" viewBox="0 0 30 30" fill="none" xmlns="http://www.w3.org/2000/svg">
<g clip-path="url(#clip0_0_3)">
<g clip-path="url(#clip1_0_3)">
<path d="M28.2558 0.404968H1.74411C0.784886 0.404968 0 1.18976 0 2.14907V21.3351C0 22.2944 0.784791 23.0793 1.74411 23.0793H13.852C14.8113 23.0793 16.2185 23.5576 16.979 24.142L23.6894 29.2984C24.45 29.8829 25.0545 29.5765 25.0327 28.6175L24.9461 24.8229C24.9241 23.8641 25.6911 23.0793 26.6506 23.0793H28.2559C29.215 23.0793 30.0001 22.2945 30.0001 21.3351V2.14907C29.9999 1.18976 29.215 0.404968 28.2558 0.404968ZM3.48402 5.66568C3.48402 5.41113 3.69113 5.20393 3.94577 5.20393H22.9485C23.2031 5.20393 23.4103 5.41113 23.4103 5.66568V6.2346C23.4103 6.48914 23.2031 6.69635 22.9485 6.69635H3.94577C3.69113 6.69635 3.48402 6.48914 3.48402 6.2346V5.66568ZM15.2308 10.5215C15.2308 10.7761 15.0236 10.9833 14.7692 10.9833H3.94577C3.69113 10.9833 3.48402 10.7761 3.48402 10.5215V9.95259C3.48402 9.69804 3.69113 9.49084 3.94577 9.49084H14.7692C15.0236 9.49084 15.2308 9.69804 15.2308 9.95259V10.5215ZM24.9931 15.8125C24.3726 16.7556 21.7025 18.9988 21.1237 18.9988C20.5572 18.9988 17.8626 16.7475 17.2462 15.8125C16.9379 15.3444 16.7191 14.8277 16.7552 14.1486C16.8197 12.9465 17.8025 11.9538 19.0063 11.9537C20.2437 11.9538 20.9645 13.2741 21.1199 13.2742C21.2978 13.2742 22.0491 11.9537 23.2336 11.9539C24.4375 11.9538 25.4201 12.9465 25.4845 14.1486C25.5206 14.8277 25.3024 15.3424 24.9931 15.8125Z" fill="#377DFF"/>
</g>
</g>
<defs>
<clipPath id="clip0_0_3">
<rect width="30" height="30" fill="white"/>
</clipPath>
<clipPath id="clip1_0_3">
<rect width="30" height="30" fill="white"/>
</clipPath>
</defs>
</svg>
